Coordinates
version=1
nRows=6
nColumns=46
inDegrees=yes

Units are S.I. units (second, meters, Newtons, ...)
Angles are in degrees.

endheader
time	pelvis_tilt	pelvis_list	pelvis_rotation	pelvis_tx	pelvis_ty	pelvis_tz	bb_angle	bb_tx	bb_ty	bb_tz	hip_flexion_r	hip_adduction_r	hip_rotation_r	knee_angle_r	knee_angle_r_beta	ankle_angle_r	subtalar_angle_r	mtp_angle_r	crank_angle_r	hip_flexion_l	hip_adduction_l	hip_rotation_l	knee_angle_l	knee_angle_l_beta	ankle_angle_l	subtalar_angle_l	mtp_angle_l	crank_angle_l	lumbar_extension	lumbar_bending	lumbar_rotation	arm_flex_r	arm_add_r	arm_rot_r	elbow_flex_r	pro_sup_r	wrist_flex_r	wrist_dev_r	arm_flex_l	arm_add_l	arm_rot_l	elbow_flex_l	pro_sup_l	wrist_flex_l	wrist_dev_l
      2.50500000	    -14.69594445	     12.18138336	      6.31895540	      0.15416015	      1.06316955	     -0.29214416	      0.00000000	      0.50000000	      0.00000000	      0.25000000	     50.81729105	    -13.30445215	     11.98974764	     59.52756876	      1.03895207	    -21.62011112	    -18.60736888	      0.00000000	      0.00000000	     82.02263377	      1.32300260	     -5.90839039	     92.32961274	      1.61145574	     23.30211344	     -0.81693353	      0.00000000	      0.00000000	    -64.36271163	     -5.04809605	     -9.45277571	     89.54985745	     -9.51717770	     23.02623987	     41.38174352	     25.09575418	      0.00000000	      0.00000000	     89.52598065	     -2.43445387	     18.29078131	     49.47618805	     27.71387297	      0.00000000	      0.00000000
      2.51000000	    -14.71543968	     12.16746243	      6.12669459	      0.15426699	      1.06337533	     -0.29188423	      0.00000000	      0.50000000	      0.00000000	      0.25000000	     51.08637777	    -13.05846055	     12.18939725	     60.37681203	      1.05377416	    -21.30014686	    -18.76754340	      0.00000000	      0.00000000	     81.66068675	      1.18090284	     -6.01667125	     91.38743524	      1.59501164	     23.11339925	     -0.92855534	      0.00000000	      0.00000000	    -64.38610349	     -5.22421817	     -9.30373843	     89.54641602	     -9.38603792	     21.83740813	     40.59724090	     28.96628348	      0.00000000	      0.00000000	     89.52541317	     -2.20561113	     17.68544231	     48.86709441	     31.12307552	      0.00000000	      0.00000000
      2.51500000	    -14.55815780	     12.37378469	      5.91503972	      0.15441603	      1.06404730	     -0.29155372	      0.00000000	      0.50000000	      0.00000000	      0.25000000	     51.20512765	    -13.02535065	     12.44066162	     61.22159760	      1.06851845	    -20.98608565	    -18.90712355	      0.00000000	      0.00000000	     81.00122823	      1.13504199	     -6.32626156	     90.34817606	      1.57687315	     22.94294120	     -1.00806805	      0.00000000	      0.00000000	    -64.77194265	     -5.52008798	     -9.26339090	     89.51594443	     -9.72572614	     21.08619571	     41.60244243	     29.89901620	      0.00000000	      0.00000000	     89.52409398	     -1.92003632	     17.29262554	     49.48524133	     31.85826632	      0.00000000	      0.00000000
      2.52000000	    -14.61777630	     12.01646162	      5.82102682	      0.15452936	      1.06399377	     -0.29140875	      0.00000000	      0.50000000	      0.00000000	      0.25000000	     51.46657082	    -12.61190589	     12.31576627	     62.08455476	      1.08357990	    -20.53739111	    -18.89406613	      0.00000000	      0.00000000	     80.78908850	      0.98061390	     -6.07566822	     89.46846371	      1.56151927	     22.67186137	     -1.17912624	      0.00000000	      0.00000000	    -64.55342247	     -5.42086327	     -8.83805126	     89.53943115	     -9.74003558	     21.46636744	     40.66490746	     30.18069662	      0.00000000	      0.00000000	     89.52383377	     -1.76589334	     17.31427470	     48.74053114	     32.10327133	      0.00000000	      0.00000000
      2.52500000	    -14.59416970	     11.90693801	      5.66514004	      0.15470781	      1.06422697	     -0.29122900	      0.00000000	      0.50000000	      0.00000000	      0.25000000	     51.69646402	    -12.37753567	     12.36368409	     62.99055707	      1.09939262	    -19.93247532	    -18.70647120	      0.00000000	      0.00000000	     80.38274849	      0.86030359	     -6.09758677	     88.51087438	      1.54480618	     22.37940319	     -1.30729564	      0.00000000	      0.00000000	    -64.54858780	     -5.55244654	     -8.56838182	     89.53449218	    -10.02862099	     21.76456979	     40.42512560	     30.62996636	      0.00000000	      0.00000000	     89.52498200	     -1.49759512	     17.26765483	     48.49816560	     32.47181469	      0.00000000	      0.00000000
      2.53000000	    -14.57993590	     11.79879285	      5.48156877	      0.15491892	      1.06442771	     -0.29095996	      0.00000000	      0.50000000	      0.00000000	      0.25000000	     51.95319471	    -12.12700473	     12.42653684	     63.90207631	      1.11530163	    -19.36249751	    -18.55110937	      0.00000000	      0.00000000	     79.97009366	      0.70650840	     -6.11483413	     87.54218865	      1.52789943	     22.08885610	     -1.40833731	      0.00000000	      0.00000000	    -64.55815180	     -5.66844822	     -8.29206833	     89.53637898	    -10.39388566	     22.44921520	     40.39753945	     30.66611768	      0.00000000	      0.00000000	     89.52103577	     -1.34111009	     17.29434298	     48.39357273	     32.43422679	      0.00000000	      0.00000000
